<?xml version="1.0" encoding="utf-8"?>
<!-- Generator: Adobe Illustrator 16.0.4, SVG Export Plug-In . SVG Version: 6.00 Build 0)  -->
<!DOCTYPE svg PUBLIC "-//W3C//DTD SVG 1.1//EN" "http://www.w3.org/Graphics/SVG/1.1/DTD/svg11.dtd">
<svg version="1.1" id="Layer_1" xmlns="http://www.w3.org/2000/svg" xmlns:xlink="http://www.w3.org/1999/xlink" x="0px" y="0px"
	 width="1280px" height="720px" viewBox="0 0 1280 720" enable-background="new 0 0 1280 720" xml:space="preserve">
<rect fill="#FFFFFF" width="1280" height="720"/>
<polygon fill="#F2F2F2" points="423.905,721 0,720 0,0 423.905,1 "/>
<rect x="74.5" y="635.5" fill="#4B5A7F" width="349.072" height="59.333"/>
<text transform="matrix(1 0 0 1 86.1255 678.0752)" fill="#F68C61" font-family="'Krungthep'" font-size="37.4657">THE PROBLEM</text>
<text transform="matrix(1 0 0 1 510.5 686.9434)" fill="#4B5A7F" font-family="'Krungthep'" font-size="25.7288">Paduano Francesco</text>
<text transform="matrix(1 0 0 1 844.4834 686.9434)" fill="#F68C61" font-family="'Krungthep'" font-size="25.7288">UIC</text>
<text transform="matrix(1 0 0 1 958.4834 686.9434)" fill="#65C3A5" font-family="'Krungthep'" font-size="25.7288">POLIMI</text>
<text transform="matrix(1 0 0 1 65.7939 167.1958)" fill="#4A5B7E" font-family="'Krungthep'" font-size="28.5819">Pathways...</text>
<text transform="matrix(1 0 0 1 65.7939 233.874)" fill="#4A5B7E" font-family="'Krungthep'" font-size="28.5819">Something.</text>
<text transform="matrix(1 0 0 1 65.7939 300.5405)" fill="#4A5B7E" font-family="'Krungthep'" font-size="28.5819">Something else</text>
<rect x="-0.5" y="999" fill="#FFFFFF" width="1280" height="720"/>
<rect x="-0.5" y="999" fill="#E6E7E8" width="490.098" height="720"/>
<text transform="matrix(1 0 0 1 38.1191 1094.1055)" font-family="'Helvetica'" font-size="44.1842">BranchingSets</text>
<text transform="matrix(1 0 0 1 694.6182 1323.6152)" font-family="'Helvetica'" font-size="44.1842">Coauthorship Network</text>
<rect y="2199" fill="#FFFFFF" width="1280" height="720"/>
<rect y="2199" fill="#E6E7E8" width="490.098" height="720"/>
<text transform="matrix(1 0 0 1 38.6191 2294.1055)" font-family="'Helvetica'" font-size="44.1842">Pathways</text>
<text transform="matrix(1 0 0 1 695.1182 2523.6152)" font-family="'Helvetica'" font-size="44.1842">Pathsays prototype</text>
<text transform="matrix(1 0 0 1 891.8428 2123.9961)" font-family="'Helvetica'" font-size="12">vv</text>
<path fill="#4B5A7F" d="M41.119,607.08h-6v-20h6V607.08z M41.119,573.08h-6v-20h6V573.08z M41.119,539.08h-6v-20h6V539.08z
	 M41.119,505.08h-6v-20h6V505.08z M41.119,471.08h-6v-20h6V471.08z M41.119,437.08h-6v-20h6V437.08z M41.119,403.08h-6v-20h6V403.08
	z M41.119,369.08h-6v-20h6V369.08z M41.119,335.08h-6v-20h6V335.08z M41.119,267.08h-6v-20h6V267.08z M41.119,199.08h-6v-20h6
	V199.08z M41.119,131.08h-6v-20h6V131.08z"/>
<path fill="#4A5B7E" d="M49.57,164.48c-0.175,0.231-0.357,0.458-0.548,0.682c-0.601,0.702-1.269,1.348-1.986,1.917l-3.732-4.698
	c0.417-0.331,0.807-0.708,1.159-1.119c3.044-3.545,2.552-8.781-0.922-11.749l3.899-4.562
	C53.192,149.869,54.128,158.447,49.57,164.48z M32.501,161.997l-4.046,4.43c-5.707-5.212-6.307-13.931-1.224-19.891
	c0.705-0.824,1.502-1.569,2.37-2.211l3.572,4.821c-0.504,0.374-0.969,0.808-1.381,1.29c-0.113,0.132-0.22,0.265-0.322,0.4
	C28.866,154.282,29.309,159.082,32.501,161.997z"/>
<path fill="#4A5B7E" d="M49.57,231.275c-0.175,0.231-0.357,0.458-0.548,0.682c-0.601,0.702-1.269,1.348-1.986,1.917l-3.732-4.698
	c0.417-0.331,0.807-0.708,1.159-1.119c3.044-3.545,2.552-8.781-0.922-11.749l3.899-4.562
	C53.192,216.664,54.128,225.242,49.57,231.275z M32.501,228.792l-4.046,4.43c-5.707-5.212-6.307-13.931-1.224-19.891
	c0.705-0.824,1.502-1.569,2.37-2.211l3.572,4.821c-0.504,0.374-0.969,0.808-1.381,1.29c-0.113,0.132-0.22,0.265-0.322,0.4
	C28.866,221.077,29.309,225.876,32.501,228.792z"/>
<path fill="#4A5B7E" d="M49.57,300.608c-0.175,0.231-0.357,0.458-0.548,0.682c-0.601,0.702-1.269,1.348-1.986,1.917l-3.732-4.698
	c0.417-0.331,0.807-0.708,1.159-1.119c3.044-3.545,2.552-8.781-0.922-11.749l3.899-4.562
	C53.192,285.997,54.128,294.575,49.57,300.608z M32.501,298.125l-4.046,4.43c-5.707-5.212-6.307-13.931-1.224-19.891
	c0.705-0.824,1.502-1.569,2.37-2.211l3.572,4.821c-0.504,0.374-0.969,0.808-1.381,1.29c-0.113,0.132-0.22,0.265-0.322,0.4
	C28.866,290.41,29.309,295.209,32.501,298.125z"/>
<g display="none">
	
		<line display="inline" fill="none" stroke="#234C67" stroke-width="6" stroke-miterlimit="10" stroke-dasharray="8,8" x1="336" y1="100" x2="336" y2="607.08"/>
	<g display="inline">
		<circle fill="#F2F2F2" cx="335.894" cy="136.375" r="13"/>
		<path fill="#234C67" d="M335.91,152.376c-0.578,0-1.165-0.032-1.744-0.095c-0.238-0.026-0.47-0.057-0.7-0.092l0.909-5.931
			c0.146,0.022,0.293,0.042,0.442,0.058c1.644,0.179,3.809-0.051,5.338-0.674l1.765,5.557
			C340.003,151.98,337.981,152.376,335.91,152.376z M325.698,148.707c-2.226-1.842-3.913-4.251-4.881-6.967l5.651-2.015
			c0.605,1.698,1.663,3.206,3.056,4.36L325.698,148.707z M348.665,146.017l-4.786-3.618c1.084-1.434,1.761-3.144,1.957-4.943
			l5.965,0.649C351.486,140.981,350.402,143.717,348.665,146.017z M326.085,134.419l-5.886-1.165
			c0.561-2.834,1.883-5.465,3.822-7.608l4.449,4.026C327.26,131.01,326.436,132.651,326.085,134.419z M345.578,133.866
			c-0.452-1.743-1.373-3.336-2.661-4.61l4.218-4.268c2.057,2.033,3.527,4.581,4.251,7.37L345.578,133.866z M332.961,126.811
			l-1.764-5.734c1.515-0.466,3.088-0.703,4.676-0.703c0.002,0,0.004,0,0.006,0c0.577,0,1.164,0.032,1.743,0.095
			c0.703,0.077,1.402,0.199,2.081,0.365l-1.424,5.829c-0.424-0.104-0.864-0.181-1.306-0.229c-0.363-0.04-0.732-0.06-1.095-0.06
			c-0.001,0-0.002,0-0.004,0C334.884,126.374,333.904,126.521,332.961,126.811z"/>
	</g>
	<g display="inline">
		<circle fill="#F2F2F2" cx="335.787" cy="217.873" r="13"/>
		<path fill="#234C67" d="M335.803,233.874c-0.578,0-1.165-0.032-1.744-0.095c-0.238-0.026-0.47-0.057-0.7-0.092l0.909-5.931
			c0.146,0.022,0.293,0.042,0.442,0.058c1.644,0.179,3.809-0.051,5.338-0.674l1.765,5.557
			C339.897,233.478,337.875,233.874,335.803,233.874z M325.592,230.205c-2.226-1.842-3.913-4.251-4.881-6.967l5.651-2.015
			c0.605,1.698,1.663,3.206,3.056,4.36L325.592,230.205z M348.558,227.515l-4.786-3.618c1.084-1.434,1.761-3.144,1.957-4.943
			l5.965,0.649C351.38,222.479,350.296,225.215,348.558,227.515z M325.979,215.917l-5.886-1.165
			c0.561-2.834,1.883-5.465,3.822-7.608l4.449,4.026C327.154,212.508,326.329,214.149,325.979,215.917z M345.471,215.364
			c-0.452-1.743-1.373-3.336-2.661-4.61l4.218-4.268c2.057,2.033,3.527,4.581,4.251,7.37L345.471,215.364z M332.854,208.309
			l-1.764-5.734c1.515-0.466,3.088-0.703,4.676-0.703c0.002,0,0.004,0,0.006,0c0.577,0,1.164,0.032,1.743,0.095
			c0.703,0.077,1.402,0.199,2.081,0.365l-1.424,5.829c-0.424-0.104-0.864-0.181-1.306-0.229c-0.363-0.04-0.732-0.06-1.095-0.06
			c-0.001,0-0.002,0-0.004,0C334.778,207.872,333.798,208.019,332.854,208.309z"/>
	</g>
	<g display="inline">
		<circle fill="#F2F2F2" cx="335.894" cy="291.83" r="13"/>
		<path fill="#234C67" d="M335.91,307.831c-0.578,0-1.165-0.032-1.744-0.095c-0.238-0.026-0.47-0.057-0.7-0.092l0.909-5.931
			c0.146,0.022,0.293,0.042,0.442,0.058c1.644,0.179,3.809-0.051,5.338-0.674l1.765,5.557
			C340.003,307.435,337.981,307.831,335.91,307.831z M325.698,304.162c-2.226-1.842-3.913-4.251-4.881-6.967l5.651-2.015
			c0.605,1.698,1.663,3.206,3.056,4.36L325.698,304.162z M348.665,301.472l-4.786-3.618c1.084-1.434,1.761-3.144,1.957-4.943
			l5.965,0.649C351.486,296.437,350.402,299.172,348.665,301.472z M326.085,289.875l-5.886-1.165
			c0.561-2.834,1.883-5.465,3.822-7.608l4.449,4.026C327.26,286.465,326.436,288.106,326.085,289.875z M345.578,289.321
			c-0.452-1.743-1.373-3.336-2.661-4.61l4.218-4.268c2.057,2.033,3.527,4.581,4.251,7.37L345.578,289.321z M332.961,282.266
			l-1.764-5.734c1.515-0.466,3.088-0.703,4.676-0.703c0.002,0,0.004,0,0.006,0c0.577,0,1.164,0.032,1.743,0.095
			c0.703,0.077,1.402,0.199,2.081,0.365l-1.424,5.829c-0.424-0.104-0.864-0.181-1.306-0.229c-0.363-0.04-0.732-0.06-1.095-0.06
			c-0.001,0-0.002,0-0.004,0C334.884,281.829,333.904,281.976,332.961,282.266z"/>
	</g>
</g>
<path fill="#4B5A7F" d="M35.116,95.14c0,0-0.02-1.395-0.02-2.12c0-2.942,0.314-10.749,3.228-19.674l5.704,1.862
	c-2.646,8.106-2.932,15.157-2.932,17.812c0,0.515,0.002,1.281,0.009,2.146L35.116,95.14z M50.737,61.767l-4.87-3.505
	c4.193-5.826,9.521-10.536,15.835-13.998l2.885,5.261C59.062,52.554,54.403,56.672,50.737,61.767z M78.727,44.443l-1.22-5.875
	C82.519,37.528,87.998,37,93.792,37h4.221v6h-4.221C88.407,43,83.338,43.485,78.727,44.443z M415,43h-17.156v-6H415V43z M386.772,43
	h-20.06v-6h20.06V43z M350.663,43h-20.054v-6h20.054V43z M314.569,43H294.52v-6h20.049V43z M278.483,43h-20.047v-6h20.047V43z
	 M242.371,43h-20.022v-6h20.022V43z M206.313,43h-20.048v-6h20.048V43z M170.225,43h-20.052v-6h20.052V43z M134.126,43H114.07v-6
	h20.057V43z"/>
<polyline fill="none" stroke="#4A5B7E" stroke-width="6" stroke-miterlimit="10" points="402.5,24 415.833,41.5 402.5,58.333 "/>
<g>
	<circle fill="#F68C61" cx="383.677" cy="664.041" r="18.877"/>
	<circle fill="#65C3A5" cx="383.677" cy="664.041" r="13.187"/>
</g>
<g>
	<circle fill="#4B5A7F" cx="479.516" cy="664.041" r="18.877"/>
</g>
<g>
	<circle fill="#F68C61" cx="810.918" cy="665.167" r="18.877"/>
</g>
<g>
	<circle fill="#F68C61" cx="925.918" cy="665.167" r="18.877"/>
</g>
<g>
	<circle fill="#65C3A5" cx="1087.918" cy="665.167" r="18.877"/>
	<circle fill="#4B5A7F" cx="1087.918" cy="665.167" r="14.683"/>
</g>
<rect x="386.497" y="661.289" fill="#65C3A5" width="81.503" height="6"/>
<line fill="none" stroke="#F68C61" stroke-width="6" stroke-miterlimit="10" x1="335.5" y1="664.289" x2="366.875" y2="664.289"/>
<rect x="494.812" y="662.166" fill="#4B5A7F" width="303.188" height="6"/>
<line fill="none" stroke="#F68C61" stroke-width="6" stroke-miterlimit="10" x1="827.601" y1="665.166" x2="910.788" y2="665.166"/>
<line fill="none" stroke="#F68C61" stroke-width="6" stroke-miterlimit="10" x1="43.667" y1="664.289" x2="93" y2="664.289"/>
<g>
	<circle fill="#F68C61" cx="38.119" cy="664.041" r="18.877"/>
	<circle fill="#4B5A7F" cx="38.119" cy="664.29" r="13.611"/>
</g>
<line fill="none" stroke="#4B5A7F" stroke-width="6" stroke-miterlimit="10" x1="38.119" y1="660.957" x2="38.119" y2="603.746"/>
<g>
	<path fill="#4B5A7F" d="M1649.5,78.639c0,6.627-5.373,12-12,12h-36c-6.627,0-12-5.373-12-12v-36c0-6.627,5.373-12,12-12h36
		c6.627,0,12,5.373,12,12V78.639z"/>
	<text transform="matrix(1 0 0 1 1596.668 74.2139)" fill="#FFFFFF" font-family="'Impact'" font-size="33.2433">UIC</text>
</g>
<g>
	<path fill="#4B5A7F" d="M1584,78.639c0,6.627-5.373,12-12,12h-36c-6.627,0-12-5.373-12-12v-36c0-6.627,5.373-12,12-12h36
		c6.627,0,12,5.373,12,12V78.639z"/>
	<rect x="1524" y="30.639" fill="#4B5A7F" width="30" height="60"/>
	<g>
		<g>
			<path fill-rule="evenodd" clip-rule="evenodd" fill="#FFFFFF" d="M1548.447,54.398c3.33,1.287,6.613,2.721,10.006,3.812
				c2.465,0.793,5.053,1.403,7.628,1.621c4.029,0.341,5.741-1.807,4.057-5.436c-1.704-3.673-4.005-7.101-6.32-10.445
				c-2.021-2.921-4.423-5.577-6.411-8.53c7.406,5.971,13.566,12.865,15.92,22.415c0.764,3.104-0.881,5.61-3.079,7.508
				c-2.306,1.99-4.743,4.044-7.479,5.277c-9.168,4.128-18.495,7.902-27.762,11.812c-0.174-0.409-0.348-0.82-0.521-1.231
				c0.758-0.331,1.515-0.666,2.275-0.992c6.565-2.807,13.304-5.274,19.652-8.509c7.2-3.666,7.198-5.844,0.762-10.709
				c-2.885-2.182-5.896-4.193-8.852-6.281C1548.365,54.606,1548.406,54.503,1548.447,54.398z"/>
		</g>
	</g>
</g>
<rect x="931.934" y="662.166" fill="#65C3A5" width="140.188" height="6"/>
<rect x="1084.918" y="672.682" fill="#4B5A7F" width="6" height="47.318"/>
<circle fill="#65C3A5" cx="479.516" cy="664.041" r="13.187"/>
<circle fill="#4B5A7F" cx="810.917" cy="665.166" r="13.187"/>
<circle fill="#65C3A5" cx="925.917" cy="665.166" r="13.187"/>
</svg>
